<svg width="231" height="49" viewBox="0 0 231 49" fill="none" xmlns="http://www.w3.org/2000/svg">
<g clip-path="url(#clip0_33_2)">
<path d="M16.7956 30.3135L23.0382 27.419V26.0109L16.7956 28.9054V30.3135Z" fill="#FF2056"/>
<path d="M16.7956 32.5351L23.0382 29.6564V28.2482L16.7956 31.1583V32.5351Z" fill="#FF2056"/>
<path d="M16.7956 34.7881L23.0382 31.8937V30.5012L16.7956 33.38V34.7881Z" fill="#FF2056"/>
<path d="M11.836 39.2941L23.0382 34.131V32.7385L11.836 37.9016V39.2941Z" fill="#FF2056"/>
<path d="M11.836 41.547L23.0382 36.384V34.9759L11.836 40.1389V41.547Z" fill="#FF2056"/>
<path d="M11.836 43.7687L23.0382 38.59V37.2132L11.836 42.3763V43.7687Z" fill="#FF2056"/>
<path d="M11.836 46.0686L23.0382 40.843V39.4349L11.836 44.6136V46.0686Z" fill="#FF2056"/>
<path d="M11.836 48.6815H23.0382V41.6722L11.836 46.8979V48.6815Z" fill="#FF2056"/>
<path d="M25.5729 18.1099L24.0396 18.8452V48.6814H25.5729V18.1099Z" fill="#FF2056"/>
<path d="M27.7945 48.6815V17.0147L26.2613 17.7657V48.6815H27.7945Z" fill="#FF2056"/>
<path d="M30.0318 48.6815V15.9508L28.5142 16.7018V48.6815H30.0318Z" fill="#FF2056"/>
<path d="M32.2848 48.6815V14.9338L30.7516 15.6066V48.6815H32.2848Z" fill="#FF2056"/>
<path d="M34.5065 48.6814V13.823L32.9576 14.5583V48.6814H34.5065Z" fill="#FF2056"/>
<path d="M36.7595 48.6814V12.7903L35.2262 13.51V48.6814H36.7595Z" fill="#FF2056"/>
<path d="M56.5982 31.5182L50.512 24.0865V19.5336L38.9812 11.836H38.6683L37.4792 12.4305V48.6814H38.9812H40.2485V34.6004L44.0504 32.2692L44.0816 48.6814H46.6788V26.3864L50.512 24.0865V48.6814H56.8641L56.5982 47.7427V39.3566V31.5182Z" fill="#FF2056"/>
<path d="M91.528 18.9376V40.9068H88.8603V24.7751L81.1397 40.9068H79.0056L71.3163 24.8065V40.9068H68.6487V18.9376H71.2222L80.104 37.3289L88.9545 18.9376H91.528ZM108.633 18.9376H111.238V32.9351C111.238 38.3332 107.722 41.3775 103.266 41.3775C98.8092 41.3775 95.2942 38.3332 95.2942 32.9351V18.9376H97.8991V32.9351C97.8991 37.0465 100.347 38.8982 103.266 38.8982C106.185 38.8982 108.633 37.0465 108.633 32.9351V18.9376ZM117.609 38.4588H127.463V40.9068H115.004V18.9376H117.609V38.4588ZM144.788 18.9376V21.3856H138.699V40.9068H136.094V21.3856H129.974V18.9376H144.788ZM150.531 18.9376V40.9068H147.926V18.9376H150.531ZM172.061 40.9068L169.801 35.7283H158.063L155.804 40.9068H153.042L162.834 18.9376H164.999L174.823 40.9068H172.061ZM159.036 33.5314H168.828L163.932 22.3585L159.036 33.5314ZM190.672 18.9376H193.277V32.9351C193.277 38.3332 189.762 41.3775 185.305 41.3775C180.849 41.3775 177.333 38.3332 177.333 32.9351V18.9376H179.938V32.9351C179.938 37.0465 182.386 38.8982 185.305 38.8982C188.224 38.8982 190.672 37.0465 190.672 32.9351V18.9376ZM211.229 18.9376V21.3856H205.14V40.9068H202.535V21.3856H196.415V18.9376H211.229ZM228.145 18.9376H230.75V40.9068H228.145V31.3031H216.972V40.9068H214.367V18.9376H216.972V28.8551H228.145V18.9376Z" fill="#FF2056"/>
</g>
<defs>
<clipPath id="clip0_33_2">
<rect width="230.75" height="48.6815" fill="white"/>
</clipPath>
</defs>
</svg>
